<?xml version="1.0" encoding="utf-8"?>
<!-- Generator: Adobe Illustrator 23.0.2, SVG Export Plug-In . SVG Version: 6.00 Build 0)  -->
<svg version="1.1" id="Layer_1" xmlns="http://www.w3.org/2000/svg" xmlns:xlink="http://www.w3.org/1999/xlink" x="0px" y="0px"
	 viewBox="0 0 26 26" style="enable-background:new 0 0 26 26;" xml:space="preserve">
<style type="text/css">
	.st0{enable-background:new    ;}
</style>
<g class="st0">
	<path d="M17.4,20.1H8.6V19c0-0.4,0.1-0.9,0.2-1.2s0.3-0.8,0.5-1.1s0.5-0.7,0.7-1s0.6-0.6,0.9-0.9s0.6-0.6,1-0.8s0.7-0.5,1-0.8
		c0.3-0.3,0.6-0.5,0.8-0.7s0.5-0.5,0.6-0.8s0.3-0.5,0.4-0.8s0.1-0.6,0.1-0.9c0-0.4-0.1-0.7-0.2-1s-0.3-0.5-0.5-0.7S13.7,8,13.4,7.9
		c-0.3-0.1-0.6-0.1-0.9-0.1c-0.6,0-1.2,0.1-1.7,0.4S9.6,8.9,9.1,9.4V7.2C9.4,7,9.7,6.8,10,6.6s0.6-0.3,0.9-0.4s0.6-0.2,1-0.2
		s0.7-0.1,1.1-0.1c0.6,0,1.2,0.1,1.7,0.2c0.5,0.2,1,0.4,1.3,0.7c0.4,0.3,0.6,0.7,0.8,1.2c0.2,0.5,0.3,1,0.3,1.7
		c0,0.6-0.1,1.1-0.2,1.5c-0.1,0.5-0.3,0.9-0.6,1.3c-0.3,0.4-0.6,0.8-0.9,1.1c-0.4,0.4-0.8,0.7-1.2,1.1c-0.4,0.3-0.8,0.6-1.1,0.9
		c-0.4,0.3-0.7,0.6-1,0.8s-0.5,0.6-0.7,0.8s-0.3,0.6-0.3,0.8l0,0h6.3C17.4,18,17.4,20.1,17.4,20.1z"/>
</g>
</svg>
