<?xml version="1.0" encoding="utf-8"?>
<!-- Generator: Adobe Illustrator 23.0.2, SVG Export Plug-In . SVG Version: 6.00 Build 0)  -->
<svg version="1.1" id="Layer_1" xmlns="http://www.w3.org/2000/svg" xmlns:xlink="http://www.w3.org/1999/xlink" x="0px" y="0px"
	 viewBox="0 0 26 26" style="enable-background:new 0 0 26 26;" xml:space="preserve">
<style type="text/css">
	.st0{enable-background:new    ;}
</style>
<g class="st0">
	<path d="M8.8,19.5v-2.1c0.9,0.7,1.9,1.1,3.1,1.1c0.9,0,1.7-0.2,2.2-0.6s0.8-1,0.8-1.7c0-1.6-1.2-2.4-3.6-2.4h-1.1V12h1
		c2.2,0,3.2-0.7,3.2-2.2c0-1.4-0.8-2.1-2.5-2.1c-0.9,0-1.8,0.3-2.6,1v-2c1-0.5,2.1-0.8,3.4-0.8c1.2,0,2.2,0.3,3,0.9
		c0.7,0.6,1.1,1.4,1.1,2.4c0,1.8-0.9,3-2.8,3.6l0,0c1,0.1,1.8,0.5,2.4,1.1s0.9,1.4,0.9,2.3c0,1.3-0.5,2.3-1.4,3
		c-0.9,0.8-2.2,1.2-3.7,1.2C10.7,20.2,9.6,20,8.8,19.5z"/>
</g>
</svg>
