<?xml version="1.0" encoding="utf-8"?>
<!-- Generator: Adobe Illustrator 23.0.2, SVG Export Plug-In . SVG Version: 6.00 Build 0)  -->
<svg version="1.1" id="Layer_1" xmlns="http://www.w3.org/2000/svg" xmlns:xlink="http://www.w3.org/1999/xlink" x="0px" y="0px"
	 viewBox="0 0 26 26" style="enable-background:new 0 0 26 26;" xml:space="preserve">
<style type="text/css">
	.st0{enable-background:new    ;}
</style>
<g class="st0">
	<path d="M8.9,19.6v-2.2c0.9,0.6,1.8,0.9,2.8,0.9s1.7-0.2,2.3-0.7s0.9-1.1,0.9-1.9s-0.3-1.4-0.9-1.9c-0.6-0.4-1.4-0.7-2.5-0.7
		c-0.4,0-1.1,0-2.3,0.1l0.5-7.4h6.9v1.9h-5l-0.2,3.5c0.4,0,0.9,0,1.2,0c1.5,0,2.6,0.4,3.4,1.1s1.2,1.8,1.2,3.1
		c0,1.4-0.5,2.5-1.4,3.3S13.6,20,12,20C10.6,20.1,9.5,19.9,8.9,19.6z"/>
</g>
</svg>
