<?xml version="1.0" encoding="utf-8"?>
<!-- Generator: Adobe Illustrator 23.0.2, SVG Export Plug-In . SVG Version: 6.00 Build 0)  -->
<svg version="1.1" id="Layer_1" xmlns="http://www.w3.org/2000/svg" xmlns:xlink="http://www.w3.org/1999/xlink" x="0px" y="0px"
	 viewBox="0 0 26 26" style="enable-background:new 0 0 26 26;" xml:space="preserve">
<style type="text/css">
	.st0{enable-background:new    ;}
</style>
<g class="st0">
	<path d="M17.7,15.5c0,0.7-0.1,1.3-0.3,1.9c-0.2,0.6-0.6,1.1-1,1.5s-0.9,0.7-1.5,1c-0.6,0.2-1.2,0.3-1.8,0.3c-0.7,0-1.3-0.1-1.9-0.4
		s-1.1-0.7-1.5-1.2s-0.8-1.2-1-2s-0.4-1.7-0.4-2.8c0-1.3,0.2-2.4,0.5-3.4s0.7-1.8,1.3-2.5s1.2-1.2,1.9-1.5c0.7-0.4,1.5-0.5,2.4-0.5
		c0.5,0,1,0,1.4,0.1s0.8,0.2,1,0.3v2c-0.3-0.2-0.7-0.3-1.1-0.4c-0.4-0.1-0.8-0.2-1.3-0.2S13.3,7.8,12.9,8c-0.5,0.2-0.9,0.5-1.2,1
		s-0.6,1-0.8,1.6s-0.3,1.4-0.3,2.2h0.1c0.3-0.5,0.7-0.8,1.2-1.1s1.1-0.4,1.8-0.4c0.6,0,1.2,0.1,1.7,0.3s0.9,0.5,1.3,0.9
		c0.3,0.4,0.6,0.8,0.8,1.4C17.6,14.2,17.7,14.8,17.7,15.5z M15.4,15.7c0-0.4,0-0.8-0.1-1.1c-0.1-0.3-0.2-0.6-0.4-0.9
		c-0.2-0.2-0.4-0.4-0.7-0.6c-0.3-0.1-0.6-0.2-1-0.2s-0.7,0.1-1,0.2s-0.5,0.3-0.7,0.6s-0.4,0.5-0.5,0.8s-0.2,0.6-0.2,0.9s0,0.7,0.1,1
		s0.2,0.7,0.4,1s0.4,0.5,0.7,0.7s0.7,0.3,1.1,0.3s0.7-0.1,1-0.2s0.5-0.3,0.7-0.6c0.2-0.2,0.3-0.5,0.4-0.9
		C15.4,16.4,15.4,16.1,15.4,15.7z"/>
</g>
</svg>
