<?xml version="1.0" encoding="utf-8"?>
<!-- Generator: Adobe Illustrator 23.0.2, SVG Export Plug-In . SVG Version: 6.00 Build 0)  -->
<svg version="1.1" id="Layer_1" xmlns="http://www.w3.org/2000/svg" xmlns:xlink="http://www.w3.org/1999/xlink" x="0px" y="0px"
	 viewBox="0 0 26 26" style="enable-background:new 0 0 26 26;" xml:space="preserve">
<style type="text/css">
	.st0{enable-background:new    ;}
</style>
<g class="st0">
	<path d="M8.3,16.1c0-0.4,0.1-0.8,0.2-1.2s0.3-0.7,0.5-1s0.5-0.6,0.8-0.9s0.7-0.5,1.1-0.6c-0.6-0.3-1.1-0.8-1.4-1.3S9,10,9,9.3
		c0-0.5,0.1-1,0.3-1.4s0.5-0.8,0.9-1.1s0.8-0.6,1.3-0.7s1.1-0.3,1.7-0.3c0.6,0,1.2,0.1,1.7,0.3s1,0.4,1.3,0.8
		c0.4,0.3,0.7,0.7,0.9,1.1c0.2,0.4,0.3,0.9,0.3,1.4c0,0.6-0.2,1.2-0.5,1.8c-0.4,0.5-0.8,1-1.4,1.3c0.4,0.2,0.8,0.4,1.1,0.6
		c0.3,0.3,0.6,0.5,0.8,0.9c0.2,0.3,0.4,0.7,0.5,1c0.1,0.4,0.2,0.8,0.2,1.2c0,0.6-0.1,1.2-0.3,1.7c-0.2,0.5-0.5,0.9-1,1.3
		s-0.9,0.6-1.5,0.8c-0.6,0.2-1.2,0.3-1.9,0.3c-0.7,0-1.3-0.1-1.9-0.3s-1.1-0.5-1.5-0.8s-0.7-0.8-1-1.3S8.3,16.7,8.3,16.1z
		 M10.5,15.9c0,0.4,0.1,0.8,0.2,1.1s0.3,0.6,0.5,0.8s0.5,0.4,0.8,0.5s0.6,0.2,1,0.2s0.7-0.1,1-0.2s0.6-0.3,0.8-0.5
		c0.2-0.2,0.4-0.5,0.5-0.8s0.2-0.7,0.2-1.1s-0.1-0.7-0.2-1s-0.3-0.6-0.5-0.8s-0.5-0.4-0.8-0.6s-0.6-0.2-1-0.2s-0.7,0.1-1,0.2
		s-0.6,0.3-0.8,0.5s-0.4,0.5-0.5,0.8S10.5,15.5,10.5,15.9z M11,9.6c0,0.3,0.1,0.6,0.2,0.8s0.2,0.5,0.4,0.7s0.4,0.3,0.6,0.4
		s0.5,0.2,0.8,0.2c0.3,0,0.5-0.1,0.8-0.2c0.2-0.1,0.4-0.3,0.6-0.4c0.2-0.2,0.3-0.4,0.4-0.7S15,9.9,15,9.6s0-0.6-0.2-0.8
		c-0.1-0.3-0.2-0.5-0.4-0.7S14,7.8,13.8,7.7c-0.2-0.1-0.5-0.2-0.8-0.2s-0.6,0.1-0.8,0.2S11.8,8,11.6,8.1s-0.3,0.4-0.4,0.7
		S11,9.3,11,9.6z"/>
</g>
</svg>
