<?xml version="1.0" encoding="utf-8"?>
<!-- Generator: Adobe Illustrator 23.0.2, SVG Export Plug-In . SVG Version: 6.00 Build 0)  -->
<svg version="1.1" id="Layer_1" xmlns="http://www.w3.org/2000/svg" xmlns:xlink="http://www.w3.org/1999/xlink" x="0px" y="0px"
	 viewBox="0 0 26 26" style="enable-background:new 0 0 26 26;" xml:space="preserve">
<path d="M21.7,2.9c-0.4,0-0.7,0.1-1.1,0.2c-2.1,0.7-3.3,2.3-4,3.5c-0.6-0.3-1.3-0.5-2-0.5h-0.4l-1.6,1.6C11.4,7,10.1,6.8,8.6,7
	c-3.8,0.3-7.1,3.5-7.5,7.4c-0.3,2.6,0.6,5.2,2.4,7.1c1.6,1.6,3.8,2.5,6,2.5c0.4,0,0.7,0,1.1-0.1c3.9-0.5,7-3.6,7.5-7.6
	c0.1-1.5-0.1-2.9-0.6-4.1l1.5-1.5v-0.4c0-0.9-0.3-1.7-0.7-2.4c0.4-0.9,1.4-2.4,3.1-2.9c0.7-0.2,1.1-0.1,1.4,0.3
	c0.2,0.4,0.4,1.5-0.6,3.3c-0.7,1.3-2.9,5.1-1.3,10.8L18,19.7l2.6,1.3l-2,2.8l3.1-1.7l1.2,1.7v-2.2l2.8,0.3L24,20.6l1.7-1.3h-2.2V15
	l-1.1,2.3c-0.7-4.2,0.8-6.5,1.5-7.9c0,0,0,0,0,0c1.1-2.2,1.3-3.9,0.5-5.2c-0.4-0.6-1-1-1.6-1.2C22.4,2.9,22.1,2.9,21.7,2.9z M15.1,8
	C16,8.2,16.8,8.9,17,9.9l-0.9,0.9c-1-0.1-1.8-0.9-1.9-1.9L15.1,8z M9.6,8.9c1,0,1.9,0.2,2.7,0.7c0.4,1.6,1.6,2.8,3.2,3.1
	c0.5,1,0.7,2.1,0.6,3.4c-0.3,3-2.8,5.5-5.7,5.8c-2,0.2-4-0.4-5.4-1.9c-1.4-1.4-2.1-3.4-1.9-5.4C3.4,11.7,5.9,9.2,8.8,9
	C9.1,9,9.4,8.9,9.6,8.9z"/>
</svg>
