<?xml version="1.0" encoding="utf-8"?>
<!-- Generator: Adobe Illustrator 23.0.2, SVG Export Plug-In . SVG Version: 6.00 Build 0)  -->
<svg version="1.1" id="Layer_1" xmlns="http://www.w3.org/2000/svg" xmlns:xlink="http://www.w3.org/1999/xlink" x="0px" y="0px"
	 viewBox="0 0 29 29" style="enable-background:new 0 0 29 29;" xml:space="preserve">
<path d="M9.6,0.5C9,0.5,8.5,0.6,8,0.9c-1.4,0.8-1.8,2.6-1,4L6.9,5l2.4,4.9L7.6,15l-2.2,2.8c-1.3,1.7-1.2,4,0.2,5.6L8,26.1
	c1.3,1.5,3.2,2.4,5.3,2.4h5.3c3.9,0,7-3.1,7-7v-9c0-1.6-1.4-3-3-3c-0.5,0-1,0.2-1.5,0.4c-0.5-0.8-1.5-1.4-2.5-1.4s-2,0.6-2.5,1.4
	l-0.3-0.5l1.6-4.9h0c0.5-1.5-0.3-3.2-1.8-3.8c-0.8-0.3-1.6-0.2-2.3,0.1C12.7,1,12.3,1.4,12,1.9c-0.4-0.6-1-1.1-1.8-1.3
	C10,0.5,9.8,0.5,9.6,0.5z M14.4,2.5c0.1,0,0.3,0,0.4,0.1c0.5,0.2,0.8,0.8,0.6,1.3v0l-1,2.9l-1.3-2.7l0.4-1v0
	c0.1-0.3,0.3-0.4,0.5-0.6C14.2,2.5,14.3,2.5,14.4,2.5z M9.4,2.5c0.1,0,0.2,0,0.4,0C10,2.6,10.2,2.8,10.3,3l5.1,10.4h0v0.1h2v-2
	c0-0.6,0.4-1,1-1s1,0.4,1,1v2h2v-1c0-0.6,0.4-1,1-1s1,0.4,1,1v9c0,2.8-2.2,5-5,5h-5.3c-1.4,0-2.8-0.6-3.8-1.7l-2.4-2.7
	c-0.8-0.9-0.8-2.1-0.1-3l0.5-0.7v1.1h2v-3.9l1-3.2l1.2,2.5l1.8-0.9L8.7,4.1l0,0V4C8.4,3.5,8.5,2.9,9,2.7C9.1,2.6,9.3,2.6,9.4,2.5z"
	/>
</svg>
