<?xml version="1.0" encoding="utf-8"?>
<!-- Generator: Adobe Illustrator 23.0.2, SVG Export Plug-In . SVG Version: 6.00 Build 0)  -->
<svg version="1.1" id="Layer_1" xmlns="http://www.w3.org/2000/svg" xmlns:xlink="http://www.w3.org/1999/xlink" x="0px" y="0px"
	 viewBox="0 0 29 29" style="enable-background:new 0 0 29 29;" xml:space="preserve">
<path d="M14.5,0.5c-1.6,0-3,1.4-3,3v5.2c-0.3-0.1-0.6-0.2-1-0.2c-1.6,0-3,1.4-3,3v3.7l-2.1,2.7c-1.3,1.7-1.2,4,0.2,5.6L8,26.1
	c1.3,1.5,3.2,2.4,5.3,2.4h5.3c3.9,0,7-3.1,7-7v-9c0-1.6-1.4-3-3-3c-0.5,0-1,0.2-1.5,0.4c-0.5-0.8-1.5-1.4-2.5-1.4
	c-0.4,0-0.7,0.1-1,0.2V3.5C17.5,1.9,16.1,0.5,14.5,0.5z M14.5,2.5c0.6,0,1,0.4,1,1v10h2v-2c0-0.6,0.4-1,1-1s1,0.4,1,1v2h2v-1
	c0-0.6,0.4-1,1-1s1,0.4,1,1v9c0,2.8-2.2,5-5,5h-5.3c-1.4,0-2.8-0.6-3.8-1.7l-2.4-2.7c-0.8-0.9-0.8-2.1-0.1-3l0.5-0.7v1.1h2v-8
	c0-0.6,0.4-1,1-1s1,0.4,1,1v2h2v-10C13.5,2.9,13.9,2.5,14.5,2.5z"/>
</svg>
